<svg width="128" height="35" viewBox="0 0 128 35" fill="none" xmlns="http://www.w3.org/2000/svg">
<rect width="128" height="35" fill="#FCF7F7"/>
<mask id="path-1-outside-1_0_1" maskUnits="userSpaceOnUse" x="-0.522736" y="-0.445297" width="92" height="33" fill="black">
<rect fill="white" x="-0.522736" y="-0.445297" width="92" height="33"/>
<path d="M20.0909 1.46379H23.6136V20.7252C23.6136 22.7138 23.1449 24.4894 22.2074 26.0519C21.2793 27.6049 19.9678 28.8312 18.2727 29.7308C16.5776 30.621 14.589 31.0661 12.3068 31.0661C10.0246 31.0661 8.03598 30.621 6.3409 29.7308C4.64583 28.8312 3.32954 27.6049 2.39204 26.0519C1.46401 24.4894 0.999992 22.7138 0.999992 20.7252V1.46379H4.52272V20.4411C4.52272 21.8615 4.83522 23.1257 5.46022 24.2337C6.08522 25.3322 6.97537 26.1986 8.13067 26.8331C9.29545 27.4581 10.6875 27.7706 12.3068 27.7706C13.9261 27.7706 15.3182 27.4581 16.4829 26.8331C17.6477 26.1986 18.5379 25.3322 19.1534 24.2337C19.7784 23.1257 20.0909 21.8615 20.0909 20.4411V1.46379ZM55.1939 16.0092C55.1939 19.0774 54.6399 21.7289 53.532 23.9638C52.424 26.1986 50.9041 27.9221 48.9723 29.1342C47.0405 30.3464 44.834 30.9524 42.353 30.9524C39.8719 30.9524 37.6655 30.3464 35.7337 29.1342C33.8018 27.9221 32.282 26.1986 31.174 23.9638C30.066 21.7289 29.5121 19.0774 29.5121 16.0092C29.5121 12.9411 30.066 10.2896 31.174 8.0547C32.282 5.81985 33.8018 4.09637 35.7337 2.88425C37.6655 1.67213 39.8719 1.06607 42.353 1.06607C44.834 1.06607 47.0405 1.67213 48.9723 2.88425C50.9041 4.09637 52.424 5.81985 53.532 8.0547C54.6399 10.2896 55.1939 12.9411 55.1939 16.0092ZM51.7848 16.0092C51.7848 13.4903 51.3634 11.3644 50.5206 9.63141C49.6873 7.89845 48.5556 6.5869 47.1257 5.69675C45.7052 4.8066 44.1143 4.36152 42.353 4.36152C40.5916 4.36152 38.996 4.8066 37.566 5.69675C36.1456 6.5869 35.014 7.89845 34.1712 9.63141C33.3378 11.3644 32.9212 13.4903 32.9212 16.0092C32.9212 18.5282 33.3378 20.6541 34.1712 22.3871C35.014 24.12 36.1456 25.4316 37.566 26.3217C38.996 27.2119 40.5916 27.657 42.353 27.657C44.1143 27.657 45.7052 27.2119 47.1257 26.3217C48.5556 25.4316 49.6873 24.12 50.5206 22.3871C51.3634 20.6541 51.7848 18.5282 51.7848 16.0092ZM61.1172 1.46379H65.3217L75.2081 25.6115H75.549L85.4354 1.46379H89.6399V30.5547H86.3445V8.45243H86.0604L76.9695 30.5547H73.7876L64.6967 8.45243H64.4126V30.5547H61.1172V1.46379Z"/>
</mask>
<path d="M20.0909 1.46379H23.6136V20.7252C23.6136 22.7138 23.1449 24.4894 22.2074 26.0519C21.2793 27.6049 19.9678 28.8312 18.2727 29.7308C16.5776 30.621 14.589 31.0661 12.3068 31.0661C10.0246 31.0661 8.03598 30.621 6.3409 29.7308C4.64583 28.8312 3.32954 27.6049 2.39204 26.0519C1.46401 24.4894 0.999992 22.7138 0.999992 20.7252V1.46379H4.52272V20.4411C4.52272 21.8615 4.83522 23.1257 5.46022 24.2337C6.08522 25.3322 6.97537 26.1986 8.13067 26.8331C9.29545 27.4581 10.6875 27.7706 12.3068 27.7706C13.9261 27.7706 15.3182 27.4581 16.4829 26.8331C17.6477 26.1986 18.5379 25.3322 19.1534 24.2337C19.7784 23.1257 20.0909 21.8615 20.0909 20.4411V1.46379ZM55.1939 16.0092C55.1939 19.0774 54.6399 21.7289 53.532 23.9638C52.424 26.1986 50.9041 27.9221 48.9723 29.1342C47.0405 30.3464 44.834 30.9524 42.353 30.9524C39.8719 30.9524 37.6655 30.3464 35.7337 29.1342C33.8018 27.9221 32.282 26.1986 31.174 23.9638C30.066 21.7289 29.5121 19.0774 29.5121 16.0092C29.5121 12.9411 30.066 10.2896 31.174 8.0547C32.282 5.81985 33.8018 4.09637 35.7337 2.88425C37.6655 1.67213 39.8719 1.06607 42.353 1.06607C44.834 1.06607 47.0405 1.67213 48.9723 2.88425C50.9041 4.09637 52.424 5.81985 53.532 8.0547C54.6399 10.2896 55.1939 12.9411 55.1939 16.0092ZM51.7848 16.0092C51.7848 13.4903 51.3634 11.3644 50.5206 9.63141C49.6873 7.89845 48.5556 6.5869 47.1257 5.69675C45.7052 4.8066 44.1143 4.36152 42.353 4.36152C40.5916 4.36152 38.996 4.8066 37.566 5.69675C36.1456 6.5869 35.014 7.89845 34.1712 9.63141C33.3378 11.3644 32.9212 13.4903 32.9212 16.0092C32.9212 18.5282 33.3378 20.6541 34.1712 22.3871C35.014 24.12 36.1456 25.4316 37.566 26.3217C38.996 27.2119 40.5916 27.657 42.353 27.657C44.1143 27.657 45.7052 27.2119 47.1257 26.3217C48.5556 25.4316 49.6873 24.12 50.5206 22.3871C51.3634 20.6541 51.7848 18.5282 51.7848 16.0092ZM61.1172 1.46379H65.3217L75.2081 25.6115H75.549L85.4354 1.46379H89.6399V30.5547H86.3445V8.45243H86.0604L76.9695 30.5547H73.7876L64.6967 8.45243H64.4126V30.5547H61.1172V1.46379Z" fill="#181818"/>
<path d="M20.0909 1.46379V0.463793H19.0909V1.46379H20.0909ZM23.6136 1.46379H24.6136V0.463793H23.6136V1.46379ZM22.2074 26.0519L21.3499 25.5374L21.349 25.5389L22.2074 26.0519ZM18.2727 29.7308L18.7377 30.6162L18.7415 30.6141L18.2727 29.7308ZM6.3409 29.7308L5.8721 30.6142L5.87597 30.6162L6.3409 29.7308ZM2.39204 26.0519L1.53223 26.5625L1.53593 26.5687L2.39204 26.0519ZM0.999992 1.46379V0.463793H-8.10623e-06V1.46379H0.999992ZM4.52272 1.46379H5.52272V0.463793H4.52272V1.46379ZM5.46022 24.2337L4.58923 24.725L4.59106 24.7282L5.46022 24.2337ZM8.13067 26.8331L7.64928 27.7097L7.65786 27.7143L8.13067 26.8331ZM16.4829 26.8331L16.9558 27.7143L16.9613 27.7113L16.4829 26.8331ZM19.1534 24.2337L18.2824 23.7424L18.281 23.7448L19.1534 24.2337ZM20.0909 1.46379V2.46379H23.6136V1.46379V0.463793H20.0909V1.46379ZM23.6136 1.46379H22.6136V20.7252H23.6136H24.6136V1.46379H23.6136ZM23.6136 20.7252H22.6136C22.6136 22.5497 22.1857 24.1443 21.3499 25.5374L22.2074 26.0519L23.0649 26.5664C24.104 24.8344 24.6136 22.8779 24.6136 20.7252H23.6136ZM22.2074 26.0519L21.349 25.5389C20.5203 26.9256 19.348 28.0281 17.8039 28.8475L18.2727 29.7308L18.7415 30.6141C20.5876 29.6344 22.0384 28.2842 23.0658 26.5648L22.2074 26.0519ZM18.2727 29.7308L17.8078 28.8455C16.2812 29.6472 14.458 30.0661 12.3068 30.0661V31.0661V32.0661C14.72 32.0661 16.8741 31.5948 18.7376 30.6162L18.2727 29.7308ZM12.3068 31.0661V30.0661C10.1556 30.0661 8.3324 29.6472 6.80583 28.8455L6.3409 29.7308L5.87597 30.6162C7.73956 31.5948 9.89359 32.0661 12.3068 32.0661V31.0661ZM6.3409 29.7308L6.8097 28.8475C5.26488 28.0277 4.08661 26.924 3.24815 25.5351L2.39204 26.0519L1.53593 26.5687C2.57246 28.2857 4.02677 29.6348 5.87211 30.6141L6.3409 29.7308ZM2.39204 26.0519L3.25182 25.5412C2.4241 24.1476 1.99999 22.5515 1.99999 20.7252H0.999992H-8.10623e-06C-8.10623e-06 22.876 0.503915 24.8311 1.53225 26.5625L2.39204 26.0519ZM0.999992 20.7252H1.99999V1.46379H0.999992H-8.10623e-06V20.7252H0.999992ZM0.999992 1.46379V2.46379H4.52272V1.46379V0.463793H0.999992V1.46379ZM4.52272 1.46379H3.52272V20.4411H4.52272H5.52272V1.46379H4.52272ZM4.52272 20.4411H3.52272C3.52272 22.0132 3.87013 23.4502 4.58924 24.725L5.46022 24.2337L6.3312 23.7424C5.80031 22.8012 5.52272 21.7099 5.52272 20.4411H4.52272ZM5.46022 24.2337L4.59106 24.7282C5.31154 25.9945 6.33919 26.9901 7.64931 27.7096L8.13067 26.8331L8.61204 25.9566C7.61155 25.4071 6.8589 24.6698 6.32938 23.7392L5.46022 24.2337ZM8.13067 26.8331L7.65786 27.7143C8.99724 28.433 10.5592 28.7706 12.3068 28.7706V27.7706V26.7706C10.8158 26.7706 9.59365 26.4833 8.60349 25.952L8.13067 26.8331ZM12.3068 27.7706V28.7706C14.0544 28.7706 15.6164 28.433 16.9558 27.7143L16.4829 26.8331L16.0101 25.952C15.02 26.4833 13.7978 26.7706 12.3068 26.7706V27.7706ZM16.4829 26.8331L16.9613 27.7113C18.2822 26.9918 19.3132 25.9942 20.0258 24.7225L19.1534 24.2337L18.281 23.7448C17.7626 24.6701 17.0132 25.4055 16.0046 25.9549L16.4829 26.8331ZM19.1534 24.2337L20.0244 24.725C20.7435 23.4502 21.0909 22.0132 21.0909 20.4411H20.0909H19.0909C19.0909 21.7099 18.8133 22.8012 18.2824 23.7424L19.1534 24.2337ZM20.0909 20.4411H21.0909V1.46379H20.0909H19.0909V20.4411H20.0909ZM53.532 23.9638L52.636 23.5196V23.5196L53.532 23.9638ZM48.9723 29.1342L49.5038 29.9813V29.9813L48.9723 29.1342ZM35.7337 29.1342L35.2022 29.9813V29.9813L35.7337 29.1342ZM31.174 23.9638L32.0699 23.5196V23.5196L31.174 23.9638ZM31.174 8.0547L30.2781 7.61053L31.174 8.0547ZM48.9723 2.88425L49.5038 2.03718V2.03718L48.9723 2.88425ZM53.532 8.0547L52.636 8.49888V8.49888L53.532 8.0547ZM50.5206 9.63141L49.6194 10.0648L49.6213 10.0688L50.5206 9.63141ZM47.1257 5.69675L46.5947 6.54412L46.5972 6.54569L47.1257 5.69675ZM37.566 5.69675L37.0376 4.8478L37.035 4.84938L37.566 5.69675ZM34.1712 9.63141L33.2719 9.19405L33.2699 9.19804L34.1712 9.63141ZM34.1712 22.3871L33.2699 22.8205L33.2719 22.8244L34.1712 22.3871ZM37.566 26.3217L37.035 27.1691L37.0376 27.1707L37.566 26.3217ZM47.1257 26.3217L46.5972 25.4728L46.5947 25.4744L47.1257 26.3217ZM50.5206 22.3871L49.6213 21.9497L49.6194 21.9537L50.5206 22.3871ZM55.1939 16.0092H54.1939C54.1939 18.9581 53.6616 21.4509 52.636 23.5196L53.532 23.9638L54.4279 24.408C55.6182 22.0069 56.1939 19.1967 56.1939 16.0092H55.1939ZM53.532 23.9638L52.636 23.5196C51.6021 25.6052 50.2018 27.1823 48.4408 28.2872L48.9723 29.1342L49.5038 29.9813C51.6064 28.662 53.2459 26.7921 54.4279 24.408L53.532 23.9638ZM48.9723 29.1342L48.4408 28.2872C46.6822 29.3906 44.6632 29.9524 42.353 29.9524V30.9524V31.9524C45.0049 31.9524 47.3988 31.3021 49.5038 29.9813L48.9723 29.1342ZM42.353 30.9524V29.9524C40.0428 29.9524 38.0238 29.3906 36.2651 28.2872L35.7337 29.1342L35.2022 29.9813C37.3072 31.3021 39.7011 31.9524 42.353 31.9524V30.9524ZM35.7337 29.1342L36.2651 28.2872C34.5042 27.1823 33.1039 25.6051 32.0699 23.5196L31.174 23.9638L30.2781 24.408C31.46 26.7921 33.0995 28.662 35.2022 29.9813L35.7337 29.1342ZM31.174 23.9638L32.0699 23.5196C31.0444 21.4509 30.5121 18.9581 30.5121 16.0092H29.5121H28.5121C28.5121 19.1967 29.0877 22.0069 30.2781 24.408L31.174 23.9638ZM29.5121 16.0092H30.5121C30.5121 13.0604 31.0444 10.5676 32.0699 8.49888L31.174 8.0547L30.2781 7.61053C29.0877 10.0116 28.5121 12.8218 28.5121 16.0092H29.5121ZM31.174 8.0547L32.0699 8.49888C33.1039 6.41335 34.5042 4.83624 36.2651 3.73131L35.7337 2.88425L35.2022 2.03718C33.0995 3.35649 31.46 5.22636 30.2781 7.61053L31.174 8.0547ZM35.7337 2.88425L36.2651 3.73131C38.0238 2.62786 40.0428 2.06606 42.353 2.06606V1.06606V0.0660648C39.7011 0.0660648 37.3072 0.716389 35.2022 2.03718L35.7337 2.88425ZM42.353 1.06606V2.06606C44.6632 2.06606 46.6822 2.62786 48.4408 3.73131L48.9723 2.88425L49.5038 2.03718C47.3988 0.716389 45.0049 0.0660648 42.353 0.0660648V1.06606ZM48.9723 2.88425L48.4408 3.73131C50.2018 4.83624 51.6021 6.41335 52.636 8.49888L53.532 8.0547L54.4279 7.61053C53.2459 5.22636 51.6064 3.35649 49.5038 2.03718L48.9723 2.88425ZM53.532 8.0547L52.636 8.49888C53.6616 10.5676 54.1939 13.0604 54.1939 16.0092H55.1939H56.1939C56.1939 12.8218 55.6182 10.0116 54.4279 7.61053L53.532 8.0547ZM51.7848 16.0092H52.7848C52.7848 13.3835 52.3461 11.0985 51.4199 9.19405L50.5206 9.63141L49.6213 10.0688C50.3807 11.6303 50.7848 13.5971 50.7848 16.0092H51.7848ZM50.5206 9.63141L51.4218 9.19804C50.5181 7.31883 49.2672 5.85192 47.6542 4.8478L47.1257 5.69675L46.5972 6.54569C47.8441 7.32187 48.8564 8.47808 49.6194 10.0648L50.5206 9.63141ZM47.1257 5.69675L47.6567 4.84938C46.0688 3.85432 44.2922 3.36152 42.353 3.36152V4.36152V5.36152C43.9365 5.36152 45.3416 5.75887 46.5947 6.54411L47.1257 5.69675ZM42.353 4.36152V3.36152C40.4138 3.36152 38.6335 3.8543 37.0376 4.8478L37.566 5.69675L38.0945 6.54569C39.3584 5.7589 40.7695 5.36152 42.353 5.36152V4.36152ZM37.566 5.69675L37.035 4.84938C35.4332 5.85319 34.1841 7.31837 33.2719 9.19405L34.1712 9.63141L35.0704 10.0688C35.8438 8.47854 36.858 7.32061 38.0971 6.54411L37.566 5.69675ZM34.1712 9.63141L33.2699 9.19804C32.3547 11.1014 31.9212 13.3849 31.9212 16.0092H32.9212H33.9212C33.9212 13.5957 34.321 11.6274 35.0724 10.0648L34.1712 9.63141ZM32.9212 16.0092H31.9212C31.9212 18.6336 32.3547 20.9171 33.2699 22.8205L34.1712 22.3871L35.0724 21.9537C34.321 20.3911 33.9212 18.4228 33.9212 16.0092H32.9212ZM34.1712 22.3871L33.2719 22.8244C34.1841 24.7001 35.4332 26.1653 37.035 27.1691L37.566 26.3217L38.0971 25.4744C36.858 24.6979 35.8438 23.54 35.0704 21.9497L34.1712 22.3871ZM37.566 26.3217L37.0376 27.1707C38.6335 28.1642 40.4138 28.657 42.353 28.657V27.657V26.657C40.7695 26.657 39.3584 26.2596 38.0945 25.4728L37.566 26.3217ZM42.353 27.657V28.657C44.2922 28.657 46.0688 28.1642 47.6567 27.1691L47.1257 26.3217L46.5947 25.4744C45.3416 26.2596 43.9365 26.657 42.353 26.657V27.657ZM47.1257 26.3217L47.6542 27.1707C49.2672 26.1666 50.5181 24.6997 51.4218 22.8205L50.5206 22.3871L49.6194 21.9537C48.8564 23.5404 47.8441 24.6966 46.5972 25.4728L47.1257 26.3217ZM50.5206 22.3871L51.4199 22.8244C52.3461 20.92 52.7848 18.635 52.7848 16.0092H51.7848H50.7848C50.7848 18.4214 50.3807 20.3882 49.6213 21.9497L50.5206 22.3871ZM61.1172 1.46379V0.463793H60.1172V1.46379H61.1172ZM65.3217 1.46379L66.2472 1.08491L65.9929 0.463793H65.3217V1.46379ZM75.2081 25.6115L74.2826 25.9904L74.5369 26.6115H75.2081V25.6115ZM75.549 25.6115V26.6115H76.2202L76.4744 25.9904L75.549 25.6115ZM85.4354 1.46379V0.463793H84.7642L84.5099 1.08491L85.4354 1.46379ZM89.6399 1.46379H90.6399V0.463793H89.6399V1.46379ZM89.6399 30.5547V31.5547H90.6399V30.5547H89.6399ZM86.3445 30.5547H85.3445V31.5547H86.3445V30.5547ZM86.3445 8.45243H87.3445V7.45243H86.3445V8.45243ZM86.0604 8.45243V7.45243H85.3904L85.1355 8.07204L86.0604 8.45243ZM76.9695 30.5547V31.5547H77.6394L77.8943 30.9351L76.9695 30.5547ZM73.7876 30.5547L72.8628 30.9351L73.1177 31.5547H73.7876V30.5547ZM64.6967 8.45243L65.6216 8.07204L65.3667 7.45243H64.6967V8.45243ZM64.4126 8.45243V7.45243H63.4126V8.45243H64.4126ZM64.4126 30.5547V31.5547H65.4126V30.5547H64.4126ZM61.1172 30.5547H60.1172V31.5547H61.1172V30.5547ZM61.1172 1.46379V2.46379H65.3217V1.46379V0.463793H61.1172V1.46379ZM65.3217 1.46379L64.3963 1.84268L74.2826 25.9904L75.2081 25.6115L76.1335 25.2326L66.2472 1.08491L65.3217 1.46379ZM75.2081 25.6115V26.6115H75.549V25.6115V24.6115H75.2081V25.6115ZM75.549 25.6115L76.4744 25.9904L86.3608 1.84268L85.4354 1.46379L84.5099 1.08491L74.6236 25.2326L75.549 25.6115ZM85.4354 1.46379V2.46379H89.6399V1.46379V0.463793H85.4354V1.46379ZM89.6399 1.46379H88.6399V30.5547H89.6399H90.6399V1.46379H89.6399ZM89.6399 30.5547V29.5547H86.3445V30.5547V31.5547H89.6399V30.5547ZM86.3445 30.5547H87.3445V8.45243H86.3445H85.3445V30.5547H86.3445ZM86.3445 8.45243V7.45243H86.0604V8.45243V9.45243H86.3445V8.45243ZM86.0604 8.45243L85.1355 8.07204L76.0446 30.1743L76.9695 30.5547L77.8943 30.9351L86.9852 8.83282L86.0604 8.45243ZM76.9695 30.5547V29.5547H73.7876V30.5547V31.5547H76.9695V30.5547ZM73.7876 30.5547L74.7125 30.1743L65.6216 8.07204L64.6967 8.45243L63.7719 8.83282L72.8628 30.9351L73.7876 30.5547ZM64.6967 8.45243V7.45243H64.4126V8.45243V9.45243H64.6967V8.45243ZM64.4126 8.45243H63.4126V30.5547H64.4126H65.4126V8.45243H64.4126ZM64.4126 30.5547V29.5547H61.1172V30.5547V31.5547H64.4126V30.5547ZM61.1172 30.5547H62.1172V1.46379H61.1172H60.1172V30.5547H61.1172Z" fill="black" mask="url(#path-1-outside-1_0_1)"/>
<line x1="31.8933" y1="0.277353" x2="53.5266" y2="32.7273" stroke="white"/>
<path d="M127.477 17.6237C127.477 27.0506 119.236 33.5547 110.427 33.5547C101.618 33.5547 94.4773 27.0506 94.4773 17.6237C94.4773 8.19674 101.618 0.554703 110.427 0.554703C119.236 0.554703 127.477 8.19674 127.477 17.6237Z" fill="#F23333"/>
<line x1="53.0612" y1="33.8321" x2="31.0612" y2="0.832052" stroke="#FFFCFC"/>
<line x1="53.0741" y1="30.8504" x2="31.0741" y2="0.850383" stroke="white"/>
</svg>
